<mxfile host="65bd71144e">
    <diagram id="RJXW56J6Gu23fEVfUAOV" name="Page-1">
        <mxGraphModel dx="3328" dy="1584" grid="1" gridSize="10" guides="1" tooltips="1" connect="1" arrows="1" fold="1" page="1" pageScale="1" pageWidth="850" pageHeight="1100" math="0" shadow="0">
            <root>
                <mxCell id="0"/>
                <mxCell id="1" parent="0"/>
                <mxCell id="2" value="&lt;font style=&quot;font-size: 24px;&quot;&gt;User&lt;/font&gt;" style="swimlane;fontStyle=0;childLayout=stackLayout;horizontal=1;startSize=50;horizontalStack=0;resizeParent=1;resizeParentMax=0;resizeLast=0;collapsible=1;marginBottom=0;whiteSpace=wrap;html=1;" vertex="1" parent="1">
                    <mxGeometry x="20" y="40" width="310" height="300" as="geometry"/>
                </mxCell>
                <mxCell id="5" value="&lt;font style=&quot;font-size: 36px;&quot;&gt;django User&lt;/font&gt;" style="text;strokeColor=none;fillColor=none;align=left;verticalAlign=middle;spacingLeft=4;spacingRight=4;overflow=hidden;points=[[0,0.5],[1,0.5]];portConstraint=eastwest;rotatable=0;whiteSpace=wrap;html=1;" vertex="1" parent="2">
                    <mxGeometry y="50" width="310" height="250" as="geometry"/>
                </mxCell>
                <mxCell id="7" value="UserAccount" style="swimlane;fontStyle=0;childLayout=stackLayout;horizontal=1;startSize=70;horizontalStack=0;resizeParent=1;resizeParentMax=0;resizeLast=0;collapsible=1;marginBottom=0;whiteSpace=wrap;html=1;fontSize=36;" vertex="1" parent="1">
                    <mxGeometry x="510" y="20" width="310" height="370" as="geometry"/>
                </mxCell>
                <mxCell id="8" value="user , &lt;font style=&quot;font-size: 18px;&quot;&gt;(one to one)&lt;/font&gt;" style="text;strokeColor=none;fillColor=none;align=left;verticalAlign=middle;spacingLeft=4;spacingRight=4;overflow=hidden;points=[[0,0.5],[1,0.5]];portConstraint=eastwest;rotatable=0;whiteSpace=wrap;html=1;fontSize=36;" vertex="1" parent="7">
                    <mxGeometry y="70" width="310" height="50" as="geometry"/>
                </mxCell>
                <mxCell id="9" value="account_no" style="text;strokeColor=none;fillColor=none;align=left;verticalAlign=middle;spacingLeft=4;spacingRight=4;overflow=hidden;points=[[0,0.5],[1,0.5]];portConstraint=eastwest;rotatable=0;whiteSpace=wrap;html=1;fontSize=36;" vertex="1" parent="7">
                    <mxGeometry y="120" width="310" height="50" as="geometry"/>
                </mxCell>
                <mxCell id="10" value="image" style="text;strokeColor=none;fillColor=none;align=left;verticalAlign=middle;spacingLeft=4;spacingRight=4;overflow=hidden;points=[[0,0.5],[1,0.5]];portConstraint=eastwest;rotatable=0;whiteSpace=wrap;html=1;fontSize=36;" vertex="1" parent="7">
                    <mxGeometry y="170" width="310" height="50" as="geometry"/>
                </mxCell>
                <mxCell id="13" value="birth_date" style="text;strokeColor=none;fillColor=none;align=left;verticalAlign=middle;spacingLeft=4;spacingRight=4;overflow=hidden;points=[[0,0.5],[1,0.5]];portConstraint=eastwest;rotatable=0;whiteSpace=wrap;html=1;fontSize=36;" vertex="1" parent="7">
                    <mxGeometry y="220" width="310" height="50" as="geometry"/>
                </mxCell>
                <mxCell id="14" value="gender" style="text;strokeColor=none;fillColor=none;align=left;verticalAlign=middle;spacingLeft=4;spacingRight=4;overflow=hidden;points=[[0,0.5],[1,0.5]];portConstraint=eastwest;rotatable=0;whiteSpace=wrap;html=1;fontSize=36;" vertex="1" parent="7">
                    <mxGeometry y="270" width="310" height="50" as="geometry"/>
                </mxCell>
                <mxCell id="15" value="balance" style="text;strokeColor=none;fillColor=none;align=left;verticalAlign=middle;spacingLeft=4;spacingRight=4;overflow=hidden;points=[[0,0.5],[1,0.5]];portConstraint=eastwest;rotatable=0;whiteSpace=wrap;html=1;fontSize=36;" vertex="1" parent="7">
                    <mxGeometry y="320" width="310" height="50" as="geometry"/>
                </mxCell>
                <mxCell id="16" value="UserAddress" style="swimlane;fontStyle=0;childLayout=stackLayout;horizontal=1;startSize=80;horizontalStack=0;resizeParent=1;resizeParentMax=0;resizeLast=0;collapsible=1;marginBottom=0;whiteSpace=wrap;html=1;fontSize=36;" vertex="1" parent="1">
                    <mxGeometry x="20" y="530" width="310" height="280" as="geometry"/>
                </mxCell>
                <mxCell id="17" value="user , &lt;font style=&quot;font-size: 18px;&quot;&gt;(one to one)&lt;/font&gt;" style="text;strokeColor=none;fillColor=none;align=left;verticalAlign=middle;spacingLeft=4;spacingRight=4;overflow=hidden;points=[[0,0.5],[1,0.5]];portConstraint=eastwest;rotatable=0;whiteSpace=wrap;html=1;fontSize=36;" vertex="1" parent="16">
                    <mxGeometry y="80" width="310" height="50" as="geometry"/>
                </mxCell>
                <mxCell id="18" value="street_address" style="text;strokeColor=none;fillColor=none;align=left;verticalAlign=middle;spacingLeft=4;spacingRight=4;overflow=hidden;points=[[0,0.5],[1,0.5]];portConstraint=eastwest;rotatable=0;whiteSpace=wrap;html=1;fontSize=36;" vertex="1" parent="16">
                    <mxGeometry y="130" width="310" height="50" as="geometry"/>
                </mxCell>
                <mxCell id="19" value="city" style="text;strokeColor=none;fillColor=none;align=left;verticalAlign=middle;spacingLeft=4;spacingRight=4;overflow=hidden;points=[[0,0.5],[1,0.5]];portConstraint=eastwest;rotatable=0;whiteSpace=wrap;html=1;fontSize=36;" vertex="1" parent="16">
                    <mxGeometry y="180" width="310" height="50" as="geometry"/>
                </mxCell>
                <mxCell id="20" value="postal_code" style="text;strokeColor=none;fillColor=none;align=left;verticalAlign=middle;spacingLeft=4;spacingRight=4;overflow=hidden;points=[[0,0.5],[1,0.5]];portConstraint=eastwest;rotatable=0;whiteSpace=wrap;html=1;fontSize=36;" vertex="1" parent="16">
                    <mxGeometry y="230" width="310" height="50" as="geometry"/>
                </mxCell>
                <mxCell id="27" value="" style="shape=singleArrow;whiteSpace=wrap;html=1;fontSize=18;arrowWidth=0.2333331637912323;arrowSize=0.23000061035156422;" vertex="1" parent="1">
                    <mxGeometry x="330" y="170" width="170" height="60" as="geometry"/>
                </mxCell>
                <mxCell id="28" value="" style="shape=singleArrow;direction=south;whiteSpace=wrap;html=1;fontSize=18;" vertex="1" parent="1">
                    <mxGeometry x="120" y="340" width="60" height="180" as="geometry"/>
                </mxCell>
                <mxCell id="29" value="TicketBooking" style="swimlane;fontStyle=0;childLayout=stackLayout;horizontal=1;startSize=70;horizontalStack=0;resizeParent=1;resizeParentMax=0;resizeLast=0;collapsible=1;marginBottom=0;whiteSpace=wrap;html=1;fontSize=36;" vertex="1" parent="1">
                    <mxGeometry x="425" y="430" width="395" height="670" as="geometry"/>
                </mxCell>
                <mxCell id="30" value="user , &lt;font style=&quot;font-size: 18px;&quot;&gt;(fk)&lt;/font&gt;" style="text;strokeColor=none;fillColor=none;align=left;verticalAlign=middle;spacingLeft=4;spacingRight=4;overflow=hidden;points=[[0,0.5],[1,0.5]];portConstraint=eastwest;rotatable=0;whiteSpace=wrap;html=1;fontSize=36;" vertex="1" parent="29">
                    <mxGeometry y="70" width="395" height="50" as="geometry"/>
                </mxCell>
                <mxCell id="31" value="train_name" style="text;strokeColor=none;fillColor=none;align=left;verticalAlign=middle;spacingLeft=4;spacingRight=4;overflow=hidden;points=[[0,0.5],[1,0.5]];portConstraint=eastwest;rotatable=0;whiteSpace=wrap;html=1;fontSize=36;" vertex="1" parent="29">
                    <mxGeometry y="120" width="395" height="50" as="geometry"/>
                </mxCell>
                <mxCell id="32" value="ticket_type" style="text;strokeColor=none;fillColor=none;align=left;verticalAlign=middle;spacingLeft=4;spacingRight=4;overflow=hidden;points=[[0,0.5],[1,0.5]];portConstraint=eastwest;rotatable=0;whiteSpace=wrap;html=1;fontSize=36;" vertex="1" parent="29">
                    <mxGeometry y="170" width="395" height="50" as="geometry"/>
                </mxCell>
                <mxCell id="33" value="time" style="text;strokeColor=none;fillColor=none;align=left;verticalAlign=middle;spacingLeft=4;spacingRight=4;overflow=hidden;points=[[0,0.5],[1,0.5]];portConstraint=eastwest;rotatable=0;whiteSpace=wrap;html=1;fontSize=36;" vertex="1" parent="29">
                    <mxGeometry y="220" width="395" height="50" as="geometry"/>
                </mxCell>
                <mxCell id="34" value="price" style="text;strokeColor=none;fillColor=none;align=left;verticalAlign=middle;spacingLeft=4;spacingRight=4;overflow=hidden;points=[[0,0.5],[1,0.5]];portConstraint=eastwest;rotatable=0;whiteSpace=wrap;html=1;fontSize=36;" vertex="1" parent="29">
                    <mxGeometry y="270" width="395" height="50" as="geometry"/>
                </mxCell>
                <mxCell id="35" value="destination" style="text;strokeColor=none;fillColor=none;align=left;verticalAlign=middle;spacingLeft=4;spacingRight=4;overflow=hidden;points=[[0,0.5],[1,0.5]];portConstraint=eastwest;rotatable=0;whiteSpace=wrap;html=1;fontSize=36;" vertex="1" parent="29">
                    <mxGeometry y="320" width="395" height="50" as="geometry"/>
                </mxCell>
                <mxCell id="41" value="coach" style="text;strokeColor=none;fillColor=none;align=left;verticalAlign=middle;spacingLeft=4;spacingRight=4;overflow=hidden;points=[[0,0.5],[1,0.5]];portConstraint=eastwest;rotatable=0;whiteSpace=wrap;html=1;fontSize=36;" vertex="1" parent="29">
                    <mxGeometry y="370" width="395" height="50" as="geometry"/>
                </mxCell>
                <mxCell id="42" value="phone_no" style="text;strokeColor=none;fillColor=none;align=left;verticalAlign=middle;spacingLeft=4;spacingRight=4;overflow=hidden;points=[[0,0.5],[1,0.5]];portConstraint=eastwest;rotatable=0;whiteSpace=wrap;html=1;fontSize=36;" vertex="1" parent="29">
                    <mxGeometry y="420" width="395" height="50" as="geometry"/>
                </mxCell>
                <mxCell id="43" value="sit_no" style="text;strokeColor=none;fillColor=none;align=left;verticalAlign=middle;spacingLeft=4;spacingRight=4;overflow=hidden;points=[[0,0.5],[1,0.5]];portConstraint=eastwest;rotatable=0;whiteSpace=wrap;html=1;fontSize=36;" vertex="1" parent="29">
                    <mxGeometry y="470" width="395" height="50" as="geometry"/>
                </mxCell>
                <mxCell id="44" value="trip_no" style="text;strokeColor=none;fillColor=none;align=left;verticalAlign=middle;spacingLeft=4;spacingRight=4;overflow=hidden;points=[[0,0.5],[1,0.5]];portConstraint=eastwest;rotatable=0;whiteSpace=wrap;html=1;fontSize=36;" vertex="1" parent="29">
                    <mxGeometry y="520" width="395" height="50" as="geometry"/>
                </mxCell>
                <mxCell id="45" value="already_booking" style="text;strokeColor=none;fillColor=none;align=left;verticalAlign=middle;spacingLeft=4;spacingRight=4;overflow=hidden;points=[[0,0.5],[1,0.5]];portConstraint=eastwest;rotatable=0;whiteSpace=wrap;html=1;fontSize=36;" vertex="1" parent="29">
                    <mxGeometry y="570" width="395" height="50" as="geometry"/>
                </mxCell>
                <mxCell id="46" value="finish_trip" style="text;strokeColor=none;fillColor=none;align=left;verticalAlign=middle;spacingLeft=4;spacingRight=4;overflow=hidden;points=[[0,0.5],[1,0.5]];portConstraint=eastwest;rotatable=0;whiteSpace=wrap;html=1;fontSize=36;" vertex="1" parent="29">
                    <mxGeometry y="620" width="395" height="50" as="geometry"/>
                </mxCell>
                <mxCell id="37" value="" style="shape=corner;whiteSpace=wrap;html=1;fontSize=18;rotation=90;" vertex="1" parent="1">
                    <mxGeometry x="344.07" y="290.94" width="121.87" height="150" as="geometry"/>
                </mxCell>
                <mxCell id="38" value="&lt;font style=&quot;font-size: 24px;&quot;&gt;1......1&lt;/font&gt;" style="text;html=1;align=center;verticalAlign=middle;resizable=0;points=[];autosize=1;strokeColor=none;fillColor=none;fontSize=18;" vertex="1" parent="1">
                    <mxGeometry x="350" y="150" width="90" height="40" as="geometry"/>
                </mxCell>
                <mxCell id="39" value="&lt;font style=&quot;font-size: 24px;&quot;&gt;1......1&lt;/font&gt;" style="text;html=1;align=center;verticalAlign=middle;resizable=0;points=[];autosize=1;strokeColor=none;fillColor=none;fontSize=18;rotation=90;" vertex="1" parent="1">
                    <mxGeometry x="150" y="400" width="90" height="40" as="geometry"/>
                </mxCell>
                <mxCell id="40" value="&lt;font style=&quot;font-size: 24px;&quot;&gt;1......N&lt;/font&gt;" style="text;html=1;align=center;verticalAlign=middle;resizable=0;points=[];autosize=1;strokeColor=none;fillColor=none;fontSize=18;rotation=90;" vertex="1" parent="1">
                    <mxGeometry x="380" y="363.75" width="90" height="40" as="geometry"/>
                </mxCell>
            </root>
        </mxGraphModel>
    </diagram>
</mxfile>